<svg width="22" height="17" viewBox="0 0 22 17" fill="none" xmlns="http://www.w3.org/2000/svg">
<path d="M16.5 0C14.55 0 12.45 0.392933 11 1.4735C9.55 0.392933 7.45 0 5.5 0C4.05 0 2.51 0.216113 1.22 0.776043C0.49 1.10021 0 1.79767 0 2.59336V13.6741C0 14.9511 1.22 15.8942 2.48 15.5798C3.46 15.3342 4.5 15.2262 5.5 15.2262C7.06 15.2262 8.72 15.4816 10.06 16.1299C10.66 16.4246 11.34 16.4246 11.93 16.1299C13.27 15.4718 14.93 15.2262 16.49 15.2262C17.49 15.2262 18.53 15.3342 19.51 15.5798C20.77 15.904 21.99 14.9609 21.99 13.6741V2.59336C21.99 1.79767 21.5 1.10021 20.77 0.776043C19.49 0.216113 17.95 0 16.5 0ZM20 12.5051C20 13.124 19.42 13.5758 18.8 13.4678C18.05 13.3303 17.27 13.2713 16.5 13.2713C14.8 13.2713 12.35 13.9098 11 14.7448V3.43817C12.35 2.60318 14.8 1.96467 16.5 1.96467C17.42 1.96467 18.33 2.05308 19.2 2.23972C19.66 2.33795 20 2.74071 20 3.20241V12.5051Z" fill="url(#paint0_linear_20_244)"/>
<path d="M12.9799 6.39559C12.6599 6.39559 12.3699 6.19906 12.2699 5.88461C12.1399 5.50137 12.3599 5.07882 12.7499 4.9609C14.2899 4.46957 16.2799 4.31234 18.1099 4.5187C18.5199 4.56784 18.8199 4.93142 18.7699 5.33432C18.7199 5.73721 18.3499 6.03201 17.9399 5.98288C16.3199 5.79617 14.5499 5.94357 13.2099 6.36611C13.1299 6.37594 13.0499 6.39559 12.9799 6.39559Z" fill="url(#paint1_linear_20_244)"/>
<path d="M12.9799 9.00863C12.6599 9.00863 12.3699 8.8121 12.2699 8.49765C12.1399 8.11441 12.3599 7.69186 12.7499 7.57394C14.2799 7.08261 16.2799 6.92538 18.1099 7.13174C18.5199 7.18087 18.8199 7.54446 18.7699 7.94735C18.7199 8.35025 18.3499 8.64505 17.9399 8.59591C16.3199 8.40921 14.5499 8.55661 13.2099 8.97915C13.1299 8.99881 13.0499 9.00863 12.9799 9.00863Z" fill="url(#paint2_linear_20_244)"/>
<path d="M12.9799 11.6217C12.6599 11.6217 12.3699 11.4251 12.2699 11.1107C12.1399 10.7274 12.3599 10.3049 12.7499 10.187C14.2799 9.69564 16.2799 9.53842 18.1099 9.74478C18.5199 9.79391 18.8199 10.1575 18.7699 10.5604C18.7199 10.9633 18.3499 11.2483 17.9399 11.2089C16.3199 11.0222 14.5499 11.1696 13.2099 11.5922C13.1299 11.6118 13.0499 11.6217 12.9799 11.6217Z" fill="url(#paint3_linear_20_244)"/>
<defs>
<linearGradient id="paint0_linear_20_244" x1="10.995" y1="0" x2="10.995" y2="16.3509" gradientUnits="userSpaceOnUse">
<stop stop-color="#00A1D3"/>
<stop offset="1" stop-color="#002FD3"/>
</linearGradient>
<linearGradient id="paint1_linear_20_244" x1="15.5039" y1="4.43018" x2="15.5039" y2="6.39559" gradientUnits="userSpaceOnUse">
<stop stop-color="#00A1D3"/>
<stop offset="1" stop-color="#002FD3"/>
</linearGradient>
<linearGradient id="paint2_linear_20_244" x1="15.5039" y1="7.04321" x2="15.5039" y2="9.00863" gradientUnits="userSpaceOnUse">
<stop stop-color="#00A1D3"/>
<stop offset="1" stop-color="#002FD3"/>
</linearGradient>
<linearGradient id="paint3_linear_20_244" x1="15.5039" y1="9.65625" x2="15.5039" y2="11.6217" gradientUnits="userSpaceOnUse">
<stop stop-color="#00A1D3"/>
<stop offset="1" stop-color="#002FD3"/>
</linearGradient>
</defs>
</svg>
