<svg width="22" height="20" viewBox="0 0 22 20" fill="none" xmlns="http://www.w3.org/2000/svg">
<path d="M11.65 13.4285C11.79 13.0749 11.7 12.6721 11.42 12.397L9.33 10.3734L9.36 10.344C11.1 8.43824 12.34 6.24764 13.07 3.92933H15.01C15.55 3.92933 16 3.48728 16 2.95682V2.93718C16 2.40672 15.55 1.96467 15.01 1.96467H9V0.982333C9 0.44205 8.55 0 8 0C7.45 0 7 0.44205 7 0.982333V1.96467H0.99C0.45 1.96467 0 2.40672 0 2.93718C0 3.47746 0.45 3.90969 0.99 3.90969H11.17C10.5 5.81541 9.44 7.61308 8 9.18482C7.19 8.31054 6.51 7.35768 5.94 6.3557C5.78 6.07082 5.49 5.894 5.16 5.894C4.47 5.894 4.03 6.63075 4.37 7.22015C5 8.33019 5.77 9.39111 6.67 10.3734L2.3 14.6073C1.9 14.9904 1.9 15.6191 2.3 16.0022C2.69 16.3853 3.32 16.3853 3.72 16.0022L8 11.788L10.02 13.7723C10.53 14.2733 11.4 14.0867 11.65 13.4285V13.4285ZM16.5 7.85867C15.9 7.85867 15.36 8.22213 15.15 8.78206L11.48 18.4089C11.24 19.0081 11.7 19.6467 12.35 19.6467C12.74 19.6467 13.09 19.4109 13.23 19.0474L14.12 16.6997H18.87L19.77 19.0474C19.91 19.4011 20.26 19.6467 20.65 19.6467C21.3 19.6467 21.76 19.0081 21.53 18.4089L17.86 8.78206C17.64 8.22213 17.1 7.85867 16.5 7.85867V7.85867ZM14.88 14.735L16.5 10.4815L18.12 14.735H14.88V14.735Z" fill="url(#paint0_linear_20_252)"/>
<defs>
<linearGradient id="paint0_linear_20_252" x1="10.795" y1="0" x2="10.795" y2="19.6467" gradientUnits="userSpaceOnUse">
<stop stop-color="#00A1D3"/>
<stop offset="1" stop-color="#002FD3"/>
</linearGradient>
</defs>
</svg>
