<svg width="116" height="48" viewBox="0 0 116 48" fill="none" xmlns="http://www.w3.org/2000/svg">
<path d="M11.0641 24.28H7.99212V37H0.120117V3.736H11.0161C15.5601 3.736 18.9681 4.568 21.2401 6.23199C23.5441 7.89599 24.6961 10.44 24.6961 13.864C24.6961 16.008 24.1841 17.8 23.1601 19.24C22.1361 20.648 20.5201 21.848 18.3121 22.84L26.7601 37H17.8801L11.0641 24.28ZM7.99212 18.856H11.3041C13.0641 18.856 14.3761 18.456 15.2401 17.656C16.1361 16.856 16.5841 15.592 16.5841 13.864C16.5841 12.264 16.1041 11.096 15.1441 10.36C14.2161 9.624 12.7761 9.256 10.8241 9.256H7.99212V18.856Z" fill="#141414"/>
<path d="M43.6651 37.048C42.6411 40.344 40.9611 42.872 38.6251 44.632C36.3211 46.424 33.2171 47.432 29.3131 47.656L28.4971 42.328C30.9291 42.008 32.7211 41.464 33.8731 40.696C35.0571 39.928 36.0011 38.696 36.7051 37H34.1131L26.3371 11.512H34.4011L38.9611 32.152L43.9531 11.512H51.7771L43.6651 37.048Z" fill="#141414"/>
<path d="M75.9489 37H69.3729L69.0369 33.784C67.1809 36.472 64.6049 37.816 61.3089 37.816C58.9729 37.816 57.1969 37.112 55.9809 35.704C54.7969 34.296 54.2049 32.328 54.2049 29.8V11.512H61.7889V28.84C61.7889 30.088 61.9809 30.968 62.3649 31.48C62.7809 31.96 63.4049 32.2 64.2369 32.2C65.8369 32.2 67.2129 31.208 68.3649 29.224V11.512H75.9489V37Z" fill="#141414"/>
<path d="M89.4976 0.567993V37H81.9136V1.38399L89.4976 0.567993ZM105.242 11.512L97.5136 22.696L105.866 37H97.3216L89.7376 23.08L97.5136 11.512H105.242Z" fill="#141414"/>
<path d="M111.182 29.128C112.366 29.128 113.374 29.56 114.206 30.424C115.07 31.256 115.502 32.264 115.502 33.448C115.502 34.664 115.07 35.704 114.206 36.568C113.374 37.4 112.366 37.816 111.182 37.816C109.966 37.816 108.926 37.4 108.062 36.568C107.23 35.704 106.814 34.664 106.814 33.448C106.814 32.264 107.23 31.256 108.062 30.424C108.926 29.56 109.966 29.128 111.182 29.128Z" fill="url(#paint0_linear_20_314)"/>
<defs>
<linearGradient id="paint0_linear_20_314" x1="57.8111" y1="0.567993" x2="57.8111" y2="47.656" gradientUnits="userSpaceOnUse">
<stop stop-color="#00A1D3"/>
<stop offset="1" stop-color="#002FD3"/>
</linearGradient>
</defs>
</svg>
